<svg xmlns="http://www.w3.org/2000/svg" viewBox="0 0 64.68 41.7"><defs><style>.cls-1{fill:#cba052;}</style></defs><g id="Layer_2" data-name="Layer 2"><g id="OBJECTS"><path class="cls-1" d="M11,29.06a1.42,1.42,0,0,1,.09-2l.09-.1,1.52-1.78a1.43,1.43,0,0,1,1.9,2.15.43.43,0,0,0-.09.1L13,29.19A1.44,1.44,0,0,1,11,29.06Zm5.46,5.27a1.77,1.77,0,0,1-2.3-.46,1.74,1.74,0,0,1-.22-2.36.3.3,0,0,0,.08-.08l4-4.51a1.3,1.3,0,0,1,1-.25,2.22,2.22,0,0,1,1.31.71,1.74,1.74,0,0,1,.22,2.36.3.3,0,0,0-.08.08Zm5.66,2.75-1.32,1.46A1.77,1.77,0,0,1,18.5,38a1.73,1.73,0,0,1-.12-2.37.47.47,0,0,0,.1-.1l3.44-3.79a1.3,1.3,0,0,1,1-.2,2.26,2.26,0,0,1,1.81,2.14,1.29,1.29,0,0,1-.41,1l-.1.1h0c-.1.08-.2.14-.3.23l-.09.09-1.54,1.8C22.2,36.94,22.15,37,22.09,37.08Zm5.22,1.64-.09.09L25.7,40.6a1.45,1.45,0,0,1-2-.13,1.42,1.42,0,0,1-.12-1.77l2.08-2.3a1.43,1.43,0,0,1,1.73.29,1.45,1.45,0,0,1,.38,1A1.41,1.41,0,0,1,27.31,38.72Zm27.55-7.55C54,32.76,52,32.11,51.6,32L38.54,24.23a1.1,1.1,0,0,0-1.12,1.89L50,33.55a4.18,4.18,0,0,1-1.08,2.69,3.24,3.24,0,0,1-2.73.69H46.1l-10.2-6a1.1,1.1,0,0,0-1.12,1.89l9.73,5.75A3,3,0,0,1,43,39.77a3.19,3.19,0,0,1-2.27-.31,1.17,1.17,0,0,0-.26-.1l-6-3.57a1.1,1.1,0,0,0-1.11,1.89l5.07,3c-2.48,2.1-5.35.34-5.71.1-1-.69-2.16-1.58-2.83-2.13a3.29,3.29,0,0,0,.15-.83,3.59,3.59,0,0,0-3.09-3.73c0-.14,0-.28,0-.43a4.49,4.49,0,0,0-3.64-4.31H23a4.24,4.24,0,0,0-1.12-3.45,4.35,4.35,0,0,0-2.64-1.4A3.47,3.47,0,0,0,17,25a3.67,3.67,0,0,0-.72-1.17,3.63,3.63,0,0,0-5.12-.22.76.76,0,0,0-.09.09l-.2.23L9.74,23l9-11.36a8,8,0,0,0-1.29,5.28l.4,5a1.11,1.11,0,0,0,1,1q.72.06,1.38.06a8.25,8.25,0,0,0,5.45-1.7,7.94,7.94,0,0,0,2.59-5.1l4.91-.29a23.32,23.32,0,0,0,2.54,1.53L53.15,28.09A3.67,3.67,0,0,1,55,29.8,1.57,1.57,0,0,1,54.86,31.17ZM43.76,3.68,48.13.22A1.05,1.05,0,0,1,48.77,0h.12a1,1,0,0,1,.69.38L64.46,19.21a1,1,0,0,1-.17,1.44l-4.38,3.46a1,1,0,0,1-1.44-.17L43.59,5.13a1.05,1.05,0,0,1-.22-.76A1,1,0,0,1,43.76,3.68ZM23.81,9.32c4.58-3.57,16-2.69,18.34-2.47l12.67,16a4.72,4.72,0,0,1-1.76,2.59l-10-6.11a7.44,7.44,0,0,0,2.76-.66,1.09,1.09,0,0,0-.91-2c-2.59,1.18-5.94-.06-8.21-1.24l-2.64-1.62a1.28,1.28,0,0,0-.24-.11h0a1,1,0,0,0-.34,0h0l-6.21.36a1.1,1.1,0,0,0-1,1,6.4,6.4,0,0,1-1.93,4.55A6.3,6.3,0,0,1,20,20.8l-.33-4.09a.68.68,0,0,0,0-.14C19.57,16.43,19,13.08,23.81,9.32ZM20.75,9.1l.44-.55.08,0ZM7.34,22.52h0L6.21,23.94a1,1,0,0,1-1.44.17L.39,20.65a1,1,0,0,1-.17-1.44L15.1.39A1,1,0,0,1,15.79,0a1,1,0,0,1,.76.21l4.37,3.46a1,1,0,0,1,.17,1.45l-.74.94a1.08,1.08,0,0,0-.45.4,1,1,0,0,0-.12.32Z"/></g></g></svg>