<svg xmlns="http://www.w3.org/2000/svg" viewBox="0 0 56.88 60.87"><defs><style>.cls-1{fill:#cba052;}</style></defs><g id="Layer_2" data-name="Layer 2"><g id="OBJECTS"><path class="cls-1" d="M55.11,29.83c-2-7.57-4.51-16.89,1.18-24.33L50.07,0C36.48,4.35,22.15,4.34,7.46,0L.77,5.58C7.64,12.65,4.58,22.25,2.1,30,1,33.43,0,36.64,0,39c0,5.47,17.17,16.15,28.45,21.85C39.72,55.29,56.88,44.72,56.88,39,56.88,36.47,56,33.24,55.11,29.83Zm-7,.61h0c0,.65,0,1.29-.09,1.93,0,.21-.06.42-.09.62-.06.43-.11.86-.2,1.28,0,.22-.1.44-.16.66-.09.4-.18.8-.3,1.19-.06.2-.14.4-.21.61-.13.4-.27.79-.43,1.18l-.24.53c-.18.4-.37.8-.57,1.19l-.26.46c-.22.39-.46.78-.71,1.16l-.28.41c-.27.38-.54.74-.83,1.1-.1.13-.22.26-.33.39s-.35.44-.54.64c0,0-.08.05-.12.09a19.58,19.58,0,0,1-8.83,5.4l-.2.08a19.15,19.15,0,0,1-3,.57l-.42,0a17.88,17.88,0,0,1-1.79.09,18.86,18.86,0,0,1-2-.1A19.64,19.64,0,0,1,8.82,30.44h0A19.64,19.64,0,0,1,26.44,10.92a18.86,18.86,0,0,1,2-.1c.65,0,1.29,0,1.93.09L31,11c.43.06.85.11,1.27.2.22,0,.45.1.67.16.4.09.79.18,1.18.3.21.06.41.14.62.21.39.14.78.27,1.17.43l.54.24c.4.18.79.37,1.18.57l.46.26c.39.23.78.46,1.16.71l.41.29c.38.26.74.53,1.1.82l.39.33c.22.18.44.35.64.54,0,0,.05.08.09.12A19.58,19.58,0,0,1,47.28,25a1.67,1.67,0,0,1,.08.2,19.37,19.37,0,0,1,.57,3c0,.14,0,.28,0,.42a17.88,17.88,0,0,1,.09,1.79Z"/><path class="cls-1" d="M16.87,31.26a1.46,1.46,0,1,0-2.06,2.06l7.87,7.87a1.46,1.46,0,0,0,1,.42,1.48,1.48,0,0,0,1-.42L41.4,25A1.46,1.46,0,1,0,39.34,23L23.71,38.1Z"/></g></g></svg>