<svg xmlns="http://www.w3.org/2000/svg" viewBox="0 0 41.88 41.94"><defs><style>.cls-1{fill:#cba052;}</style></defs><g id="Layer_2" data-name="Layer 2"><g id="OBJECTS"><path class="cls-1" d="M39.49,26.6V21.32A.58.58,0,0,0,39.6,21V14.84a.56.56,0,0,0-.57-.57A2.11,2.11,0,0,1,37.21,12,2.1,2.1,0,0,1,39,9.68a.57.57,0,0,0,.57-.57V3A.56.56,0,0,0,39,2.39H33.39A3.35,3.35,0,0,0,30,0a3.35,3.35,0,0,0-3.37,2.39H14.84a.56.56,0,0,0-.57.57A2.11,2.11,0,0,1,12,4.78,2.1,2.1,0,0,1,9.68,3a.57.57,0,0,0-.57-.57H3A.56.56,0,0,0,2.39,3V8.6A3.35,3.35,0,0,0,0,12a3.35,3.35,0,0,0,2.39,3.37v5.29a.52.52,0,0,0-.11.33v6.15a.58.58,0,0,0,.57.57A2.1,2.1,0,0,1,4.67,30a2.11,2.11,0,0,1-1.82,2.3.57.57,0,0,0-.57.57V39a.57.57,0,0,0,.57.57H8.49a3.36,3.36,0,0,0,3.37,2.39,3.35,3.35,0,0,0,3.37-2.39H27.05a.57.57,0,0,0,.57-.57,2.09,2.09,0,0,1,2.29-1.81A2.09,2.09,0,0,1,32.2,39a.57.57,0,0,0,.57.57h6.15a.56.56,0,0,0,.57-.57V33.34A3.35,3.35,0,0,0,41.88,30,3.35,3.35,0,0,0,39.49,26.6ZM21.58,3.53h5.57A.57.57,0,0,0,27.72,3,2.11,2.11,0,0,1,30,1.14,2.1,2.1,0,0,1,32.31,3a.58.58,0,0,0,.57.57h5.58V8.6A3.35,3.35,0,0,0,36.07,12a3.35,3.35,0,0,0,2.39,3.37v5.05H32.77a.57.57,0,0,0-.57.57,2.1,2.1,0,0,1-2.29,1.82,2.59,2.59,0,0,1-.63-.08A1.91,1.91,0,0,1,27.72,21a.57.57,0,0,0-.48-.56.63.63,0,0,0-.19,0H21.58V15.34A3.35,3.35,0,0,0,24,12,3.35,3.35,0,0,0,21.58,8.6ZM20.31,38.41H14.73a.57.57,0,0,0-.57.57,2.1,2.1,0,0,1-2.3,1.82A2.1,2.1,0,0,1,9.57,39,.58.58,0,0,0,9,38.41H3.42V33.34A3.35,3.35,0,0,0,5.81,30,3.35,3.35,0,0,0,3.42,26.6V21.55H9.11A.57.57,0,0,0,9.68,21,2.1,2.1,0,0,1,12,19.17a2.59,2.59,0,0,1,.63.07A1.9,1.9,0,0,1,14.16,21a.57.57,0,0,0,.49.56.58.58,0,0,0,.19,0h5.47V26.6A3.35,3.35,0,0,0,17.92,30a3.35,3.35,0,0,0,2.39,3.37Z"/></g></g></svg>