<svg xmlns="http://www.w3.org/2000/svg" viewBox="0 0 50.67 37.28"><defs><style>.cls-1{fill:#cba052;}</style></defs><g id="Layer_2" data-name="Layer 2"><g id="OBJECTS"><path class="cls-1" d="M46.87,29a17.47,17.47,0,0,0,3.8-10.82C50.67,8.36,42.3.34,32,.34A19.46,19.46,0,0,0,25.6,1.43,17.27,17.27,0,0,0,18.72,0C8.86,0,.83,8.36.83,18.64a19.38,19.38,0,0,0,2.1,8.77L.07,34.84a1.06,1.06,0,0,0,1.39,1.35l6.44-2.7a17.29,17.29,0,0,0,18.74,1.86,19.5,19.5,0,0,0,5.39.76A19.24,19.24,0,0,0,40.79,34l7.43,2.86a1,1,0,0,0,.38.07,1,1,0,0,0,.75-.32,1,1,0,0,0,.22-1.14ZM18.72,35.18a15.4,15.4,0,0,1-10-3.71,1.05,1.05,0,0,0-1.09-.17l-4.75,2,2.15-5.57A1.07,1.07,0,0,0,5,26.83a17.11,17.11,0,0,1-2.07-8.19C2.94,9.52,10,2.1,18.72,2.1a15.27,15.27,0,0,1,4.11.57,17.8,17.8,0,0,0-9.44,15.55A17.87,17.87,0,0,0,23.82,34.28,15,15,0,0,1,18.72,35.18ZM40.63,15.24,30,25.91a1.06,1.06,0,0,1-.74.31h0a1.06,1.06,0,0,1-.76-.35l-5.05-5.52a1.05,1.05,0,1,1,1.55-1.42l4.31,4.71,9.89-9.89a1.05,1.05,0,1,1,1.49,1.49Z"/></g></g></svg>