<?xml version="1.0" encoding="UTF-8"?>
<svg id="Layer_2" data-name="Layer 2" xmlns="http://www.w3.org/2000/svg" xmlns:xlink="http://www.w3.org/1999/xlink" viewBox="0 0 92.52 92.52">
  <defs>
    <style>
      .cls-1 {
        fill: #cba052;
      }

      .cls-2 {
        fill: url(#Degradado_sin_nombre_69);
      }
    </style>
    <linearGradient id="Degradado_sin_nombre_69" data-name="Degradado sin nombre 69" x1="34.21" y1="92.52" x2="34.21" y2="0" gradientTransform="translate(80.47) rotate(-180) scale(1 -1)" gradientUnits="userSpaceOnUse">
      <stop offset="0" stop-color="#bfd0ef"/>
      <stop offset="1" stop-color="#fff"/>
    </linearGradient>
  </defs>
  <g id="OBJECTS">
    <g>
      <circle class="cls-2" cx="46.26" cy="46.26" r="46.26"/>
      <g>
        <path class="cls-1" d="m72.92,47.59c-2.02-7.56-4.51-16.88,1.19-24.33l-6.22-5.48c-13.59,4.33-27.92,4.32-42.62-.02l-6.69,5.58c6.87,7.07,3.81,16.67,1.33,24.46-1.08,3.39-2.1,6.59-2.1,8.98,0,5.47,17.17,16.14,28.45,21.85,11.27-5.59,28.43-16.16,28.43-21.85,0-2.55-.86-5.78-1.77-9.2Zm-7.04.61h0c0,.65-.04,1.29-.1,1.93-.02.21-.06.41-.09.62-.06.43-.11.85-.19,1.27-.04.23-.11.44-.16.67-.09.4-.19.79-.31,1.18-.06.21-.14.41-.21.61-.13.4-.27.79-.43,1.18-.07.18-.16.35-.24.53-.18.4-.37.8-.57,1.19-.08.15-.17.3-.26.46-.22.4-.46.78-.71,1.16-.09.14-.19.27-.29.41-.26.37-.53.74-.82,1.1-.11.13-.22.26-.33.39-.18.21-.35.43-.54.64-.03.04-.08.05-.12.08-2.38,2.53-5.41,4.42-8.84,5.41-.06.03-.13.06-.19.07-.99.27-2,.46-3.02.57-.14.02-.28.03-.42.04-.59.05-1.19.09-1.79.09-.68,0-1.34-.03-2-.1-9.88-1.01-17.62-9.38-17.62-19.52h0c0-10.15,7.74-18.52,17.62-19.52.66-.07,1.33-.1,2-.1s1.29.04,1.93.1c.21.02.42.06.63.09.42.06.84.11,1.26.19.23.05.45.11.68.16.39.09.79.19,1.18.3.21.06.41.14.62.21.4.13.79.27,1.17.43.18.08.36.16.54.24.4.18.79.36,1.18.57.16.08.31.17.46.26.39.22.78.45,1.16.7.14.09.28.19.41.29.37.26.74.53,1.1.82.13.11.26.22.39.33.21.18.43.35.64.54.04.03.05.08.08.12,2.53,2.38,4.42,5.41,5.41,8.84.03.06.06.13.08.19.27.99.46,2,.57,3.02.02.14.03.28.04.42.05.59.09,1.19.09,1.79h0Z"/>
        <path class="cls-1" d="m34.68,49.02c-.57-.57-1.49-.57-2.06,0s-.57,1.49,0,2.06l7.87,7.87c.28.28.66.43,1.03.43s.74-.14,1.03-.43l16.66-16.15c.57-.57.57-1.49,0-2.06s-1.49-.57-2.06,0l-15.63,15.12-6.84-6.84Z"/>
      </g>
    </g>
  </g>
</svg>