<svg xmlns="http://www.w3.org/2000/svg" viewBox="0 0 46.5 43.2"><defs><style>.cls-1{fill:#cba052;}</style></defs><g id="Layer_2" data-name="Layer 2"><g id="OBJECTS"><path class="cls-1" d="M45.47,3H39.61c0-.63,0-1.27,0-1.92a1,1,0,0,0-1-1H7.88a1,1,0,0,0-1,1q0,1,0,1.92H1A1,1,0,0,0,0,4c0,.3-.09,7.38,3.76,11.31a8.3,8.3,0,0,0,5.48,2.49c3,8.59,8.15,11.44,11.31,12.38v5.08H15.7a1,1,0,0,0-1,1v1.53H13.29a1,1,0,0,0-.88.51l-2,3.36a1,1,0,0,0,0,1,1,1,0,0,0,.89.52H35.17a1,1,0,0,0,.88-1.55l-2-3.36a1,1,0,0,0-.89-.51H31.81V36.25a1,1,0,0,0-1-1H25.94V30.14c3.15-.94,8.3-3.79,11.3-12.37a8.36,8.36,0,0,0,5.5-2.5c3.85-3.93,3.77-11,3.76-11.31A1,1,0,0,0,45.47,3ZM5.23,13.83C2.76,11.32,2.21,7,2.09,5H7a49.52,49.52,0,0,0,1.61,10.6A6.15,6.15,0,0,1,5.23,13.83ZM22.6,35.22V30.57l.64,0,.64,0v4.65ZM41.27,13.83a6.12,6.12,0,0,1-3.36,1.79A49.57,49.57,0,0,0,39.53,5h4.88C44.29,7,43.74,11.32,41.27,13.83Z"/></g></g></svg>