<svg xmlns="http://www.w3.org/2000/svg" viewBox="0 0 1169.7 361.4"><defs><style>.cls-1{fill:#ca9f52;}</style></defs><g id="Layer_2" data-name="Layer 2"><g id="Layer_1-2" data-name="Layer 1"><polygon points="837.9 3.09 738.72 224.19 770.63 224.19 854 35.93 937.67 224.19 969.27 224.19 870.09 2.11 837.9 3.09"/><path d="M694.37,37.24A116.82,116.82,0,0,0,609.92,3.09h-57.5l14.83,25H609c25,0,46.23,8.29,63.19,24.66,17.58,16.66,26.12,36.6,26.12,60.94s-8.54,44.28-26.13,61C655.25,191,634,199.25,609,199.25H567.24L552.4,224.19h57.49l2.29,0A117.06,117.06,0,0,0,694.54,190c20.91-20.91,32.1-47.92,31.52-76C726.64,85.52,715.39,58.26,694.37,37.24Z"/><path d="M1138,37.24a116.78,116.78,0,0,0-84.46-34.15H996l14.84,25h41.76c25,0,46.23,8.29,63.2,24.66,17.57,16.66,26.11,36.6,26.11,60.94s-8.54,44.28-26.13,61c-17,16.35-38.2,24.65-63.18,24.65h-41.77L996,224.19h57.5c.76,0,1.52,0,2.29,0A117.07,117.07,0,0,0,1138.17,190c20.9-20.91,32.09-47.92,31.51-76C1170.26,85.52,1159,58.26,1138,37.24Z"/><path d="M229.65,3.09,138,158.4,46.36,3.09H12.57V146.16a57,57,0,0,1,26.81.14V42.87L138,210.34,236.64,42.87V224.19h26.8V3.09Z"/><circle class="cls-1" cx="25.67" cy="201.65" r="25.67"/><path d="M536.38,115.36c0-.57,0-1.14,0-1.72a109.55,109.55,0,0,0-15.79-57.15C500.38,21.92,464.1,1,423.17.05l-1.59,0L420.3,0H420l-1.29,0c-.53,0-1.06,0-1.58,0-40.94.93-77.22,21.87-97.46,56.44a109.55,109.55,0,0,0-15.79,57.15c0,.58,0,1.15,0,1.72-.17,22.82,7.62,45.63,21.85,64.77,18.78,25.94,47.44,42.52,79.87,46.31a1,1,0,0,1-.12.17,105.28,105.28,0,0,0,12.17.71q1.25,0,2.49,0c.82,0,1.66,0,2.48,0a105.28,105.28,0,0,0,12.17-.71l-.12-.17c32.44-3.79,61.09-20.37,79.87-46.31C528.76,161,536.55,138.18,536.38,115.36ZM425.81,201.23l-2,.1c-1.23,0-2.47.07-3.72.08s-2.5,0-3.73-.08l-1.95-.1c-22.28-1.22-40.89-9.54-56.72-25.36-12.77-12.78-20.85-27.66-24.15-44.39,0-.23-.09-.47-.13-.71-.18-.92-.32-1.86-.47-2.79a96,96,0,0,1-1.07-14.34v0c0-.71,0-1.41,0-2.11a92.67,92.67,0,0,1,1.49-15,86.19,86.19,0,0,1,10.13-26.74,93.07,93.07,0,0,1,14.18-18,90.4,90.4,0,0,1,20.69-15.62,87.38,87.38,0,0,1,18.75-7.39l.85-.23c.38-.1.77-.18,1.15-.27A91,91,0,0,1,420,25.87h.34a91,91,0,0,1,20.78,2.35c.39.09.77.17,1.15.27l.85.23a87,87,0,0,1,18.75,7.39,90.4,90.4,0,0,1,20.69,15.62,93.07,93.07,0,0,1,14.18,18,86.28,86.28,0,0,1,10.13,26.74,92.66,92.66,0,0,1,1.5,15c0,.7,0,1.4,0,2.11v0A94.69,94.69,0,0,1,507.27,128c-.14.93-.29,1.87-.46,2.79-.05.24-.1.48-.14.71-3.3,16.73-11.37,31.61-24.15,44.39C466.69,191.69,448.09,200,425.81,201.23Z"/><path d="M7.57,284.3H19l25.13,34.86,26-34.86H81v77.1H69.67v-59L43.9,337,19,303.1v58.3H7.57Z"/><path d="M94.81,284.3H145.3v11H106.11v22H145.3v11H106.11v22.07H145.3V361.4H94.81Z"/><path d="M157.76,284.3h30c16.47,0,28.09,11.94,28.09,27.25s-11.62,27.25-28.31,27.25H169.27v22.6H157.76Zm11.51,10.56v33.27H186.8c10.78,0,17.54-7.18,17.54-16.58s-6.76-16.69-17.54-16.69Z"/></g></g></svg>