<svg xmlns="http://www.w3.org/2000/svg" viewBox="0 0 1169.78 367.86"><defs><style>.cls-1{fill:#cba052;}</style></defs><g id="Layer_2" data-name="Layer 2"><g id="Layer_1-2" data-name="Layer 1"><path d="M7.57,284H58.89V295.8h-39v23.57h39v11.78h-39v35.57H7.57Z"/><path d="M72.15,291.88,84.62,284v82.7H72.15Z"/><path d="M100.25,284h13.49l41.46,62.76V284h12v82.7H154.64l-42.26-63.9v63.9H100.25Z"/><path d="M182.06,284h54.15V295.8h-42v23.57h42v11.78h-42v23.68h42v11.89H182.06Z"/><path d="M274.51,284h51.33V295.8h-39v23.57h39v11.78h-39v35.57H274.51Z"/><path d="M339.1,291.88,351.56,284v82.7H339.1Z"/><path d="M367.19,284h13.49l41.46,62.76V284h12v82.7H421.58l-42.26-63.9v63.9H367.19Z"/><path d="M449.79,291.88,462.26,284v82.7H449.79Z"/><path d="M471.43,350.41l10.77-8.5c6,9.74,14.39,14.28,24.81,14.28,11.1,0,16.88-5.44,16.88-12.92,0-9.86-10.54-11.78-21.64-14.16-12.8-2.61-26.4-6-26.4-22.55,0-12.91,11.79-23.68,28.44-23.68,14.16,0,23.45,5.1,31.5,14.17l-10.2,8c-4.87-6.57-10.54-11-21.3-11-11.1,0-15.75,5.21-15.75,12.35,0,8.38,9.75,10,20.51,12.24,13,2.71,27.53,6.45,27.53,24.47,0,12.69-10.42,24.7-29.23,24.7C490.13,367.86,479.25,361.06,471.43,350.41Z"/><path d="M599.58,331H559.92v35.69H547.57V291.88L559.92,284v35.23h39.66V291.88L611.81,284v82.7H599.58Z"/><path d="M627.45,291.88,639.91,284v82.7H627.45Z"/><path d="M655.55,284H669l41.47,62.76V284h12v82.7H709.93l-42.26-63.9v63.9H655.55Z"/><path d="M734.64,325.37c0-23.57,18-42.49,42.82-42.49,15.52,0,27.53,6.91,35.35,17.79l-10.42,7.25c-5.55-8.38-14-13.25-24.93-13.25-17.9,0-30.47,13.93-30.47,30.7S759.79,356,777.58,356c15.63,0,25.49-9.52,28.09-22.89H776V321.4h42.6v4.42c0,22.44-15.3,42-41,42C752.65,367.86,734.64,348.48,734.64,325.37Z"/><polygon points="837.96 3.09 738.77 224.21 770.68 224.21 854.06 35.93 937.74 224.21 969.34 224.21 870.15 2.11 837.96 3.09"/><path d="M694.42,37.24A116.84,116.84,0,0,0,610,3.09H552.45l14.84,25h41.77c25,0,46.23,8.29,63.2,24.66,17.57,16.67,26.12,36.6,26.12,61s-8.55,44.28-26.14,61c-17,16.36-38.21,24.65-63.18,24.65H567.28l-14.84,25h57.5c.76,0,1.52,0,2.28,0A117.08,117.08,0,0,0,694.59,190c20.9-20.91,32.1-47.92,31.52-76C726.69,85.53,715.43,58.26,694.42,37.24Z"/><path d="M1138.07,37.24a116.76,116.76,0,0,0-84.46-34.15h-57.5L1011,28h41.76c25,0,46.24,8.29,63.2,24.66,17.58,16.67,26.12,36.6,26.12,61s-8.54,44.28-26.13,61c-17,16.36-38.21,24.65-63.19,24.65h-41.78l-14.84,25h57.5c.76,0,1.53,0,2.29,0A117.08,117.08,0,0,0,1138.25,190c20.9-20.91,32.09-47.92,31.51-76C1170.34,85.53,1159.09,58.26,1138.07,37.24Z"/><path d="M229.67,3.09,138,158.41,46.37,3.09H12.58V146.17a56.94,56.94,0,0,1,26.8.14V42.88L138,210.36,236.66,42.88V224.21h26.8V3.09Z"/><circle class="cls-1" cx="25.67" cy="201.67" r="25.67"/><path d="M536.42,115.37c0-.58,0-1.15,0-1.72a109.67,109.67,0,0,0-15.79-57.16C500.41,21.93,464.13,1,423.19.05c-.52,0-1.05,0-1.58,0l-1.29,0H420L418.7,0c-.53,0-1.06,0-1.58,0C376.18,1,339.9,21.93,319.65,56.49a109.67,109.67,0,0,0-15.79,57.16c0,.57,0,1.14,0,1.72-.17,22.82,7.62,45.63,21.86,64.77,18.78,25.94,47.43,42.52,79.87,46.31l-.12.18a107.54,107.54,0,0,0,12.17.7c.83,0,1.66,0,2.48,0l2.49,0a107.54,107.54,0,0,0,12.17-.7l-.12-.18c32.44-3.79,61.09-20.37,79.87-46.31C528.79,161,536.59,138.19,536.42,115.37ZM425.84,201.25l-2,.09c-1.23,0-2.47.08-3.73.08s-2.49,0-3.72-.08l-2-.09c-22.28-1.23-40.88-9.54-56.71-25.37C345,163.1,336.9,148.22,333.61,131.49c-.05-.23-.1-.47-.14-.71-.17-.92-.32-1.86-.47-2.79a96,96,0,0,1-1.07-14.34v-.05c0-.7,0-1.4,0-2.1a91.45,91.45,0,0,1,1.5-15,85.69,85.69,0,0,1,10.13-26.74,92.82,92.82,0,0,1,14.18-18,90.57,90.57,0,0,1,20.68-15.62,87.78,87.78,0,0,1,18.76-7.39l.85-.23c.38-.1.76-.17,1.15-.27A91,91,0,0,1,420,25.88h.33a91,91,0,0,1,20.79,2.34c.39.1.77.17,1.15.27l.85.23a87.78,87.78,0,0,1,18.76,7.39,90.57,90.57,0,0,1,20.68,15.62,92.82,92.82,0,0,1,14.18,18,85.69,85.69,0,0,1,10.13,26.74,91.45,91.45,0,0,1,1.5,15c0,.7,0,1.4,0,2.1v.05A96,96,0,0,1,507.31,128c-.15.93-.3,1.87-.47,2.79,0,.24-.09.48-.14.71-3.29,16.73-11.37,31.61-24.15,44.39C466.72,191.71,448.12,200,425.84,201.25Z"/></g></g></svg>