<svg xmlns="http://www.w3.org/2000/svg" viewBox="0 0 1170.7 368.14"><defs><style>.cls-1{fill:#cba052;}</style></defs><g id="Layer_2" data-name="Layer 2"><g id="Layer_1-2" data-name="Layer 1"><path d="M7.58,350.68l10.77-8.5c6,9.75,14.4,14.29,24.83,14.29,11.11,0,16.89-5.45,16.89-12.93,0-9.87-10.54-11.79-21.65-14.17C25.61,326.76,12,323.36,12,306.8c0-12.92,11.79-23.69,28.46-23.69,14.17,0,23.47,5.1,31.52,14.17l-10.21,8.05c-4.87-6.58-10.54-11-21.31-11-11.11,0-15.76,5.21-15.76,12.36,0,8.39,9.75,10,20.52,12.24,13,2.73,27.55,6.47,27.55,24.5,0,12.7-10.43,24.71-29.25,24.71C26.29,368.14,15.4,361.34,7.58,350.68Z"/><path d="M83.78,284.24H96l27,37.42,27.89-37.42h11.68V367H150.45V303.63l-27.67,37.19L96,304.42V367H83.78Z"/><path d="M203.18,284.24h12.47l32,82.77H234.81l-6.69-17.69H190.7L184.13,367H171.2Zm-8.05,53.29H223.7l-14.29-37.87Z"/><path d="M256.24,284.24h32.21c18,0,29.7,11.68,29.7,27.66a26.33,26.33,0,0,1-16,24.5L319.74,367H305.68l-15-27.33H268.49V367H256.24Zm12.25,11.45v32.66h18.94c12.58,0,18.36-8.05,18.36-16.79,0-9.41-6.23-15.87-18.36-15.87Z"/><path d="M347.3,295.58H323.83V284.24H383v11.34H359.54V367H347.3Z"/><path d="M413.41,350.68l10.77-8.5c6,9.75,14.4,14.29,24.83,14.29,11.11,0,16.89-5.45,16.89-12.93,0-9.87-10.54-11.79-21.65-14.17-12.82-2.61-26.42-6-26.42-22.57,0-12.92,11.79-23.69,28.46-23.69,14.17,0,23.47,5.1,31.52,14.17l-10.21,8.05c-4.87-6.58-10.54-11-21.31-11-11.11,0-15.76,5.21-15.76,12.36,0,8.39,9.75,10,20.52,12.24,13,2.73,27.55,6.47,27.55,24.5,0,12.7-10.43,24.71-29.25,24.71C432.11,368.14,421.23,361.34,413.41,350.68Z"/><path d="M486.54,325.62A42.47,42.47,0,1,1,529,368.14,42.43,42.43,0,0,1,486.54,325.62Zm72.57,0C559.11,308.84,546,295,529,295s-30.05,13.83-30.05,30.61,13.16,30.51,30.05,30.51A30.16,30.16,0,0,0,559.11,325.62Z"/><path d="M583.61,284.24H596V355h40.25v12H583.61Z"/><path d="M644.16,335.94v-51.7h12.58v52.38c0,11.23,7.94,20,19.51,20s19.39-8.73,19.39-20V284.24h12.58v51.7c0,19.84-13.27,32.2-32.09,32.2S644.16,355.78,644.16,335.94Z"/><path d="M742.69,295.58H719.22V284.24h59.19v11.34H754.94V367H742.69Z"/><path d="M790.77,292.11l12.48-7.87V367H790.77Z"/><path d="M816.17,325.62a42.47,42.47,0,1,1,42.41,42.52A42.43,42.43,0,0,1,816.17,325.62Zm72.57,0c0-16.78-13.15-30.61-30.16-30.61s-30.05,13.83-30.05,30.61,13.16,30.51,30.05,30.51A30.16,30.16,0,0,0,888.74,325.62Z"/><path d="M913.24,284.24h13.49l41.5,62.81V284.24h12V367H967.66l-42.29-63.95V367H913.24Z"/><path d="M988.64,350.68l10.77-8.5c6,9.75,14.4,14.29,24.84,14.29,11.11,0,16.89-5.45,16.89-12.93,0-9.87-10.54-11.79-21.66-14.17-12.81-2.61-26.42-6-26.42-22.57,0-12.92,11.8-23.69,28.47-23.69,14.17,0,23.47,5.1,31.52,14.17l-10.21,8.05c-4.88-6.58-10.54-11-21.31-11-11.12,0-15.77,5.21-15.77,12.36,0,8.39,9.75,10,20.53,12.24,13,2.73,27.55,6.47,27.55,24.5,0,12.7-10.43,24.71-29.25,24.71C1007.35,368.14,996.47,361.34,988.64,350.68Z"/><polygon points="838.62 3.09 739.35 224.38 771.29 224.38 854.73 35.96 938.47 224.38 970.1 224.38 870.83 2.11 838.62 3.09"/><path d="M695,37.27A116.91,116.91,0,0,0,610.44,3.09H552.89l14.85,25h41.8c25,0,46.27,8.3,63.25,24.68,17.58,16.68,26.13,36.63,26.13,61s-8.55,44.31-26.15,61c-17,16.37-38.24,24.67-63.23,24.67H567.72l-14.85,25h57.54l2.29,0a117.13,117.13,0,0,0,82.43-34.29c20.92-20.93,32.13-48,31.54-76C727.26,85.59,716,58.31,695,37.27Z"/><path d="M1139,37.27a116.85,116.85,0,0,0-84.52-34.18H996.89l14.85,25h41.8c25,0,46.27,8.3,63.25,24.68,17.59,16.68,26.14,36.63,26.14,61s-8.55,44.31-26.16,61c-17,16.37-38.24,24.67-63.23,24.67h-41.81l-14.86,25h57.55l2.28,0a117.17,117.17,0,0,0,82.44-34.29c20.92-20.93,32.12-48,31.54-76C1171.26,85.59,1160,58.31,1139,37.27Z"/><path d="M229.85,3.09,138.13,158.53,46.4,3.09H12.59v143.2a56.68,56.68,0,0,1,26.82.14V42.91l98.71,167.61L236.84,42.91V224.39h26.83V3.09Z"/><circle class="cls-1" cx="25.69" cy="201.82" r="25.69"/><path d="M536.84,115.46c0-.58,0-1.15,0-1.72a109.7,109.7,0,0,0-15.8-57.2C500.8,21.94,464.49,1,423.53.05c-.53,0-1.06,0-1.59,0l-1.29,0h-.34L419,0l-1.59,0c-41,.93-77.28,21.89-97.54,56.49a109.7,109.7,0,0,0-15.8,57.2c0,.57,0,1.14,0,1.72-.17,22.84,7.63,45.67,21.87,64.82,18.8,26,47.47,42.56,79.94,46.35l-.12.18a107.54,107.54,0,0,0,12.17.7q1.25,0,2.49,0c.83,0,1.67,0,2.49,0a107.72,107.72,0,0,0,12.18-.7l-.12-.18c32.46-3.79,61.14-20.38,79.94-46.35C529.21,161.13,537,138.3,536.84,115.46ZM426.17,201.4l-2,.1c-1.23,0-2.47.08-3.73.08s-2.49,0-3.73-.08l-1.95-.1c-22.3-1.22-40.92-9.54-56.76-25.39-12.79-12.78-20.87-27.67-24.17-44.41-.05-.24-.1-.48-.14-.71-.17-.93-.32-1.87-.47-2.8a96.13,96.13,0,0,1-1.07-14.35v0c0-.7,0-1.4,0-2.1a91.57,91.57,0,0,1,1.5-15,86.11,86.11,0,0,1,10.13-26.77,93.3,93.3,0,0,1,14.2-18,90.5,90.5,0,0,1,20.7-15.63,87.89,87.89,0,0,1,18.77-7.4l.85-.23,1.15-.26a90.64,90.64,0,0,1,20.8-2.35h.34a90.73,90.73,0,0,1,20.81,2.35l1.15.26.85.23a88.1,88.1,0,0,1,18.77,7.4,90.72,90.72,0,0,1,20.7,15.63,92.86,92.86,0,0,1,14.19,18,86.13,86.13,0,0,1,10.14,26.77,92.67,92.67,0,0,1,1.5,15c0,.7,0,1.4,0,2.1v0a94.82,94.82,0,0,1-1.07,14.35c-.14.93-.29,1.87-.46,2.8-.05.23-.09.47-.14.71-3.3,16.74-11.38,31.63-24.17,44.41C467.09,191.86,448.47,200.18,426.17,201.4Z"/></g></g></svg>