<svg xmlns="http://www.w3.org/2000/svg" viewBox="0 0 1169.78 362.49"><defs><style>.cls-1{fill:#cba052;}</style></defs><g id="Layer_2" data-name="Layer 2"><g id="Layer_1-2" data-name="Layer 1"><polygon points="837.9 3.09 738.72 224.19 770.63 224.19 854 35.93 937.67 224.19 969.27 224.19 870.09 2.11 837.9 3.09"/><path d="M694.37,37.24A116.82,116.82,0,0,0,609.92,3.09h-57.5l14.83,25H609c25,0,46.23,8.29,63.19,24.66,17.58,16.66,26.12,36.6,26.12,60.94s-8.54,44.28-26.13,61C655.25,191,634,199.25,609,199.25H567.24L552.4,224.19h57.49l2.29,0A117.06,117.06,0,0,0,694.54,190c20.91-20.91,32.1-47.92,31.52-76C726.64,85.52,715.39,58.26,694.37,37.24Z"/><path d="M1138,37.24a116.78,116.78,0,0,0-84.46-34.15H996l14.84,25h41.76c25,0,46.23,8.29,63.2,24.66,17.57,16.66,26.11,36.6,26.11,60.94s-8.54,44.28-26.13,61c-17,16.35-38.2,24.65-63.18,24.65h-41.77L996,224.19h57.5c.76,0,1.52,0,2.29,0A117.07,117.07,0,0,0,1138.17,190c20.9-20.91,32.09-47.92,31.51-76C1170.26,85.52,1159,58.26,1138,37.24Z"/><path d="M229.65,3.09,138,158.4,46.36,3.09H12.57V146.16a57,57,0,0,1,26.81.14V42.87L138,210.34,236.64,42.87V224.19h26.8V3.09Z"/><circle class="cls-1" cx="25.67" cy="201.65" r="25.67"/><path d="M536.38,115.36c0-.57,0-1.14,0-1.72a109.55,109.55,0,0,0-15.79-57.15C500.38,21.92,464.1,1,423.17.05l-1.59,0L420.3,0H420l-1.29,0c-.53,0-1.06,0-1.58,0-40.94.93-77.22,21.87-97.46,56.44a109.55,109.55,0,0,0-15.79,57.15c0,.58,0,1.15,0,1.72-.17,22.82,7.62,45.63,21.85,64.77,18.78,25.94,47.44,42.52,79.87,46.31a1,1,0,0,1-.12.17,105.28,105.28,0,0,0,12.17.71q1.25,0,2.49,0c.82,0,1.66,0,2.48,0a105.28,105.28,0,0,0,12.17-.71l-.12-.17c32.44-3.79,61.09-20.37,79.87-46.31C528.76,161,536.55,138.18,536.38,115.36ZM425.81,201.23l-2,.1c-1.23,0-2.47.07-3.72.08s-2.5,0-3.73-.08l-1.95-.1c-22.28-1.22-40.89-9.54-56.72-25.36-12.77-12.78-20.85-27.66-24.15-44.39,0-.23-.09-.47-.13-.71-.18-.92-.32-1.86-.47-2.79a96,96,0,0,1-1.07-14.34v0c0-.71,0-1.41,0-2.11a92.67,92.67,0,0,1,1.49-15,86.19,86.19,0,0,1,10.13-26.74,93.07,93.07,0,0,1,14.18-18,90.4,90.4,0,0,1,20.69-15.62,87.38,87.38,0,0,1,18.75-7.39l.85-.23c.38-.1.77-.18,1.15-.27A91,91,0,0,1,420,25.87h.34a91,91,0,0,1,20.78,2.35c.39.09.77.17,1.15.27l.85.23a87,87,0,0,1,18.75,7.39,90.4,90.4,0,0,1,20.69,15.62,93.07,93.07,0,0,1,14.18,18,86.28,86.28,0,0,1,10.13,26.74,92.66,92.66,0,0,1,1.5,15c0,.7,0,1.4,0,2.11v0A94.69,94.69,0,0,1,507.27,128c-.14.93-.29,1.87-.46,2.79-.05.24-.1.48-.14.71-3.3,16.73-11.37,31.61-24.15,44.39C466.69,191.69,448.09,200,425.81,201.23Z"/><path d="M7.57,284.76H57.78v10.92h-39v21.85h39v10.92h-39v22h39v11H7.57Z"/><path d="M70.18,284.76H81.63V350.3h37.28v11.14H70.18Z"/><path d="M129.63,284.76h50.21v10.92h-39v21.85h39v10.92h-39v22h39v11H129.63Z"/><path d="M189.4,323.1a38.88,38.88,0,0,1,39.39-39.39A39.32,39.32,0,0,1,262.72,303l-10,6.2c-4.73-8.82-13.13-14.49-24-14.49-16,0-27.94,12.6-27.94,28.36,0,15.54,12,28.15,27.84,28.15,11.87,0,20.37-6.52,24.79-15.76L263.77,341c-6.62,12.82-19.33,21.54-35,21.54C206.1,362.49,189.4,344.84,189.4,323.1Z"/><path d="M289.4,295.26H267.66v-10.5h54.83v10.5H300.75v66.18H289.4Z"/><path d="M333.21,284.76H363c16.7,0,27.52,10.82,27.52,25.63a24.39,24.39,0,0,1-14.81,22.69L392,361.44H379l-13.87-25.32H344.55v25.32H333.21Zm11.34,10.61v30.25h17.54c11.66,0,17-7.46,17-15.55,0-8.72-5.78-14.7-17-14.7Z"/><path d="M399.07,323.1a39.34,39.34,0,1,1,39.29,39.39A39.31,39.31,0,0,1,399.07,323.1Zm67.23,0a28,28,0,0,0-27.94-28.36c-15.65,0-27.84,12.81-27.84,28.36a27.89,27.89,0,1,0,55.78,0Z"/><path d="M489,284.76h11.34l25,34.66,25.84-34.66H562v76.68H550.75V302.72l-25.63,34.45-24.79-33.72v58H489Z"/><path d="M575.76,284.76H626v10.92H587v21.85h39v10.92H587v22h39v11H575.76Z"/><path d="M635.53,323.1a38.87,38.87,0,0,1,39.39-39.39A39.3,39.3,0,0,1,708.84,303l-10,6.2c-4.73-8.82-13.13-14.49-24-14.49-16,0-27.94,12.6-27.94,28.36,0,15.54,12,28.15,27.83,28.15,11.87,0,20.38-6.52,24.79-15.76L709.9,341c-6.62,12.82-19.33,21.54-35,21.54C652.23,362.49,635.53,344.84,635.53,323.1Z"/><path d="M767.57,328.35H730.8v33.09H719.35V292.62l11.45-7.86v32.66h36.77v-24.8l11.34-7.86v76.68H767.57Z"/><path d="M816.52,284.76h11.55l29.62,76.68H845.82l-6.19-16.39H805l-6.09,16.39h-12Zm-7.46,49.37h26.47L822.29,299Z"/><path d="M865.68,284.76h12.5L916.62,343V284.76h11.14v76.68H916.1l-39.18-59.25v59.25H865.68Z"/><path d="M942.26,292.62l11.55-7.86v76.68H942.26Z"/><path d="M965.79,323.1a38.87,38.87,0,0,1,39.39-39.39A39.3,39.3,0,0,1,1039.1,303l-10,6.2c-4.73-8.82-13.13-14.49-24-14.49-16,0-27.94,12.6-27.94,28.36,0,15.54,12,28.15,27.83,28.15,11.87,0,20.38-6.52,24.79-15.76l10.3,5.46c-6.62,12.82-19.33,21.54-35,21.54C982.49,362.49,965.79,344.84,965.79,323.1Z"/><path d="M1071.88,284.76h11.56l29.62,76.68h-11.87l-6.2-16.39h-34.66l-6.1,16.39h-12Zm-7.46,49.37h26.47L1077.66,299Z"/><path d="M1121,284.76h11.45V350.3h37.29v11.14H1121Z"/></g></g></svg>