<svg xmlns="http://www.w3.org/2000/svg" viewBox="0 0 1169.78 364.38"><defs><style>.cls-1{fill:#cba052;}</style></defs><g id="Layer_2" data-name="Layer 2"><g id="Layer_1-2" data-name="Layer 1"><path d="M7.62,324.27a39.59,39.59,0,0,1,40.11-40.12,40,40,0,0,1,34.55,19.69l-10.16,6.31c-4.82-9-13.37-14.76-24.39-14.76-16.26,0-28.45,12.83-28.45,28.88,0,15.83,12.19,28.67,28.34,28.67,12.09,0,20.75-6.64,25.25-16.05l10.48,5.56c-6.74,13.05-19.68,21.93-35.62,21.93C24.62,364.38,7.62,346.41,7.62,324.27Z"/><path d="M142.08,329.62H104.64v33.69H93V285.22h11.66v33.27h37.44V285.22h11.55v78.09H142.08Z"/><path d="M191.93,285.22H203.7l30.16,78.09H221.78l-6.32-16.69h-35.3L174,363.31H161.77Zm-7.59,50.28h26.95l-13.48-35.73Z"/><path d="M242,285.22h30.38c17,0,28,11,28,26.1a24.83,24.83,0,0,1-15.08,23.11l16.58,28.88H288.63l-14.12-25.78h-21v25.78H242ZM253.55,296v30.81h17.86c11.88,0,17.33-7.6,17.33-15.84,0-8.88-5.88-15-17.33-15Z"/><path d="M312.39,291.53l11.76-6.31v78.09H312.39Z"/><path d="M358,295.92H335.81v-10.7h55.84v10.7H369.51v67.39H358Z"/><path d="M424.17,330.36l-27.6-45.14h13.05l20.44,34.13,20.53-34.13h12.84l-27.7,45.25v32.84H424.17Z"/><path d="M494.67,285.22h48.46v11.13h-36.8V318.6h36.8v11.12h-36.8v33.59H494.67Z"/><path d="M552.65,324.27a40.06,40.06,0,1,1,40,40.11A40,40,0,0,1,552.65,324.27Zm68.46,0a28.53,28.53,0,0,0-28.45-28.88c-15.94,0-28.35,13.05-28.35,28.88a28.4,28.4,0,1,0,56.8,0Z"/><path d="M643.47,334V285.22h11.88v49.42c0,10.59,7.48,18.83,18.39,18.83S692,345.23,692,334.64V285.22h11.88V334c0,18.72-12.52,30.38-30.27,30.38S643.47,352.72,643.47,334Z"/><path d="M717.28,285.22H730l39.15,59.26V285.22H780.5v78.09H768.63L728.73,303v60.33H717.28Z"/><path d="M794.52,285.22H817.2c25.35,0,41,16.9,41,39s-17.12,39-40.55,39h-23.1Zm11.66,10.7v56.59h10.27c18,0,29.95-12.2,29.95-28.24,0-16.37-10.81-28.35-30.38-28.35Z"/><path d="M889.08,285.22h11.77L931,363.31H918.93l-6.31-16.69h-35.3l-6.21,16.69H858.92Zm-7.59,50.28h27L895,299.77Z"/><path d="M945.67,295.92H923.53v-10.7h55.84v10.7H957.23v67.39H945.67Z"/><path d="M991,291.53l11.77-6.31v78.09H991Z"/><path d="M1015,324.27a40.06,40.06,0,1,1,40,40.11A40,40,0,0,1,1015,324.27Zm68.46,0A28.53,28.53,0,0,0,1055,295.39c-15.94,0-28.35,13.05-28.35,28.88a28.4,28.4,0,1,0,56.8,0Z"/><path d="M1106.56,285.22h12.73l39.15,59.26V285.22h11.34v78.09h-11.87L1118,303v60.33h-11.45Z"/><polygon points="837.9 3.09 738.72 224.19 770.63 224.19 854 35.93 937.67 224.19 969.27 224.19 870.09 2.11 837.9 3.09"/><path d="M694.37,37.24A116.82,116.82,0,0,0,609.92,3.09h-57.5l14.83,25H609c25,0,46.23,8.29,63.19,24.66,17.58,16.66,26.12,36.6,26.12,60.94s-8.54,44.28-26.13,61C655.25,191,634,199.25,609,199.25H567.24L552.4,224.19h57.49l2.29,0A117.06,117.06,0,0,0,694.54,190c20.91-20.91,32.1-47.92,31.52-76C726.64,85.52,715.39,58.26,694.37,37.24Z"/><path d="M1138,37.24a116.78,116.78,0,0,0-84.46-34.15H996l14.84,25h41.76c25,0,46.23,8.29,63.2,24.66,17.57,16.66,26.11,36.6,26.11,60.94s-8.54,44.28-26.13,61c-17,16.35-38.2,24.65-63.18,24.65h-41.77L996,224.19h57.5c.76,0,1.52,0,2.29,0A117.07,117.07,0,0,0,1138.17,190c20.9-20.91,32.09-47.92,31.51-76C1170.26,85.52,1159,58.26,1138,37.24Z"/><path d="M229.65,3.09,138,158.4,46.36,3.09H12.57V146.16a57,57,0,0,1,26.81.14V42.87L138,210.34,236.64,42.87V224.19h26.8V3.09Z"/><circle class="cls-1" cx="25.67" cy="201.65" r="25.67"/><path d="M536.38,115.36c0-.57,0-1.14,0-1.72a109.55,109.55,0,0,0-15.79-57.15C500.38,21.92,464.1,1,423.17.05l-1.59,0L420.3,0H420l-1.29,0c-.53,0-1.06,0-1.58,0-40.94.93-77.22,21.87-97.46,56.44a109.55,109.55,0,0,0-15.79,57.15c0,.58,0,1.15,0,1.72-.17,22.82,7.62,45.63,21.85,64.77,18.78,25.94,47.44,42.52,79.87,46.31a1,1,0,0,1-.12.17,105.28,105.28,0,0,0,12.17.71q1.25,0,2.49,0c.82,0,1.66,0,2.48,0a105.28,105.28,0,0,0,12.17-.71l-.12-.17c32.44-3.79,61.09-20.37,79.87-46.31C528.76,161,536.55,138.18,536.38,115.36ZM425.81,201.23l-2,.1c-1.23,0-2.47.07-3.72.08s-2.5,0-3.73-.08l-1.95-.1c-22.28-1.22-40.89-9.54-56.72-25.36-12.77-12.78-20.85-27.66-24.15-44.39,0-.23-.09-.47-.13-.71-.18-.92-.32-1.86-.47-2.79a96,96,0,0,1-1.07-14.34v0c0-.71,0-1.41,0-2.11a92.67,92.67,0,0,1,1.49-15,86.19,86.19,0,0,1,10.13-26.74,93.07,93.07,0,0,1,14.18-18,90.4,90.4,0,0,1,20.69-15.62,87.38,87.38,0,0,1,18.75-7.39l.85-.23c.38-.1.77-.18,1.15-.27A91,91,0,0,1,420,25.87h.34a91,91,0,0,1,20.78,2.35c.39.09.77.17,1.15.27l.85.23a87,87,0,0,1,18.75,7.39,90.4,90.4,0,0,1,20.69,15.62,93.07,93.07,0,0,1,14.18,18,86.28,86.28,0,0,1,10.13,26.74,92.66,92.66,0,0,1,1.5,15c0,.7,0,1.4,0,2.11v0A94.69,94.69,0,0,1,507.27,128c-.14.93-.29,1.87-.46,2.79-.05.24-.1.48-.14.71-3.3,16.73-11.37,31.61-24.15,44.39C466.69,191.69,448.09,200,425.81,201.23Z"/></g></g></svg>