<svg xmlns="http://www.w3.org/2000/svg" viewBox="0 0 1170.72 359.94"><defs><style>.cls-1{fill:#cba052;}</style></defs><g id="Layer_2" data-name="Layer 2"><g id="Layer_1-2" data-name="Layer 1"><path d="M7.58,284.43H53.8V295H18.7v21.23H53.8v10.61H18.7v32H7.58Z"/><path d="M81.25,284.43H92.48l28.77,74.49H109.72l-6-15.92H70l-5.92,15.92H52.48Zm-7.24,48H99.72L86.87,298.31Z"/><path d="M122,321.67a37.77,37.77,0,0,1,38.27-38.26,38.2,38.2,0,0,1,33,18.77l-9.7,6c-4.59-8.57-12.75-14.08-23.26-14.08-15.51,0-27.14,12.25-27.14,27.55,0,15.11,11.63,27.35,27,27.35,11.53,0,19.79-6.33,24.08-15.31l10,5.31c-6.43,12.45-18.78,20.92-34,20.92C138.2,359.94,122,342.8,122,321.67Z"/><path d="M204.12,292.3l11.23-7.87v74.49H204.12Z"/><path d="M229.43,284.43h11.12V348.1h36.23v10.82H229.43Z"/><path d="M287.9,292.3l11.23-7.87v74.49H287.9Z"/><path d="M331.37,294.63H310.25v-10.2h53.27v10.2H342.4v64.29h-11Z"/><path d="M394.54,327.49l-26.32-43.06h12.44L400.15,317l19.6-32.55H432l-26.43,43.16v31.33h-11Z"/><path d="M461.79,284.43h11L497.1,318.1l25.1-33.67h10.51v74.49H521.79v-57L496.9,335.35l-24.09-32.76v56.33h-11Z"/><path d="M569.25,284.43h11.22l28.78,74.49H597.72l-6-15.92H558l-5.91,15.92H540.47Zm-7.25,48h25.72l-12.86-34.08Z"/><path d="M617,284.43h12.14L666.5,341V284.43h10.82v74.49H666l-38.06-57.55v57.55H617Z"/><path d="M713.85,284.43h11.23l28.77,74.49H742.32l-6-15.92H702.63l-5.92,15.92H685.08Zm-7.24,48h25.71l-12.86-34.08Z"/><path d="M754.57,321.67c0-21.22,16.22-38.26,38.57-38.26,14,0,24.8,6.22,31.84,16L815.59,306A25.83,25.83,0,0,0,793.14,294c-16.12,0-27.45,12.55-27.45,27.65s11.53,27.55,27.55,27.55c14.09,0,23-8.57,25.31-20.61H791.82V318.1h38.36v4c0,20.21-13.77,37.86-36.94,37.86C770.79,359.94,754.57,342.49,754.57,321.67Z"/><path d="M840.8,284.43h48.78V295H851.72v21.23h37.86v10.61H851.72v21.33h37.86v10.71H840.8Z"/><path d="M901.62,284.43h11l24.29,33.67L962,284.43h10.51v74.49H961.62v-57l-24.9,33.47-24.08-32.76v56.33h-11Z"/><path d="M985.91,284.43h48.78V295H996.83v21.23h37.86v10.61H996.83v21.33h37.86v10.71H985.91Z"/><path d="M1046.73,284.43h12.15L1096.22,341V284.43H1107v74.49h-11.33l-38.06-57.55v57.55h-10.92Z"/><path d="M1138.58,294.63h-21.13v-10.2h53.27v10.2H1149.6v64.29h-11Z"/><polygon points="838.57 3.09 739.31 224.37 771.25 224.37 854.68 35.96 938.42 224.37 970.05 224.37 870.79 2.11 838.57 3.09"/><path d="M694.93,37.27A116.92,116.92,0,0,0,610.41,3.09H552.86l14.85,25h41.8c25,0,46.26,8.3,63.24,24.68,17.59,16.68,26.14,36.63,26.14,61s-8.55,44.32-26.15,61c-17,16.37-38.24,24.67-63.23,24.67H567.69l-14.85,25h57.54l2.29,0a117.15,117.15,0,0,0,82.43-34.29c20.92-20.93,32.12-48,31.54-76C727.22,85.59,716,58.31,694.93,37.27Z"/><path d="M1138.91,37.27a116.88,116.88,0,0,0-84.52-34.18H996.84l14.85,25h41.8c25,0,46.26,8.3,63.24,24.68,17.59,16.68,26.14,36.63,26.14,61s-8.55,44.32-26.15,61c-17,16.37-38.24,24.67-63.23,24.67h-41.81l-14.86,25h57.54l2.29,0a117.15,117.15,0,0,0,82.43-34.29c20.92-20.93,32.12-48,31.54-76C1171.2,85.59,1159.94,58.31,1138.91,37.27Z"/><path d="M229.84,3.09,138.12,158.52,46.4,3.09H12.58V146.28a56.72,56.72,0,0,1,26.83.14V42.91l98.71,167.6,98.71-167.6V224.37h26.82V3.09Z"/><circle class="cls-1" cx="25.69" cy="201.81" r="25.69"/><path d="M536.81,115.45c0-.57,0-1.14,0-1.72A109.73,109.73,0,0,0,521,56.53C500.78,21.94,464.47,1,423.5.05c-.52,0-1.05,0-1.58,0l-1.29,0h-.34L419,0l-1.58,0c-41,.93-77.27,21.89-97.54,56.48a109.72,109.72,0,0,0-15.79,57.2c0,.58,0,1.15,0,1.72-.17,22.84,7.63,45.67,21.87,64.82,18.8,26,47.48,42.55,79.94,46.35l-.12.18a107.54,107.54,0,0,0,12.17.7q1.25,0,2.49,0t2.49,0a107.72,107.72,0,0,0,12.18-.7l-.12-.18c32.46-3.8,61.14-20.38,79.93-46.35C529.18,161.12,537,138.29,536.81,115.45ZM426.15,201.39l-2,.1c-1.23,0-2.47.08-3.73.08s-2.49,0-3.73-.08l-2-.1c-22.3-1.22-40.92-9.54-56.76-25.38-12.79-12.79-20.87-27.68-24.17-44.42,0-.24-.09-.47-.14-.71-.17-.93-.32-1.86-.46-2.8a94.73,94.73,0,0,1-1.07-14.35v0c0-.71,0-1.41,0-2.11a92.67,92.67,0,0,1,1.5-15,86.07,86.07,0,0,1,10.14-26.76,92.56,92.56,0,0,1,14.19-18,90.43,90.43,0,0,1,20.7-15.63,87.89,87.89,0,0,1,18.77-7.4l.85-.23c.38-.1.77-.17,1.15-.26a90.64,90.64,0,0,1,20.8-2.35h.34a90.73,90.73,0,0,1,20.81,2.35c.38.09.77.16,1.15.26l.85.23a87.81,87.81,0,0,1,18.76,7.4,90.27,90.27,0,0,1,20.71,15.63,93.32,93.32,0,0,1,14.19,18,86.15,86.15,0,0,1,10.13,26.76,91.57,91.57,0,0,1,1.5,15c0,.7,0,1.4,0,2.11v0a96,96,0,0,1-1.07,14.35c-.15.94-.29,1.87-.47,2.8,0,.24-.09.47-.14.71-3.29,16.74-11.38,31.63-24.16,44.42C467.07,191.85,448.44,200.17,426.15,201.39Z"/></g></g></svg>