<svg xmlns="http://www.w3.org/2000/svg" viewBox="0 0 1170.72 368.04"><defs><style>.cls-1{fill:#cba052;}</style></defs><g id="Layer_2" data-name="Layer 2"><g id="Layer_1-2" data-name="Layer 1"><polygon points="838.63 3.09 739.36 224.39 771.3 224.39 854.74 35.96 938.49 224.39 970.12 224.39 870.85 2.11 838.63 3.09"/><path d="M695,37.27A116.89,116.89,0,0,0,610.45,3.09H552.9l14.85,25h41.8c25,0,46.27,8.3,63.25,24.69,17.59,16.67,26.14,36.63,26.14,61s-8.55,44.32-26.16,61c-17,16.37-38.24,24.67-63.23,24.67H567.73l-14.85,25h57.54l2.29,0a117.17,117.17,0,0,0,82.44-34.29c20.92-20.93,32.12-48,31.54-76C727.27,85.59,716,58.31,695,37.27Z"/><path d="M1139,37.27a116.89,116.89,0,0,0-84.53-34.18H996.91l14.85,25h41.8c25,0,46.27,8.3,63.25,24.69,17.59,16.67,26.14,36.63,26.14,61s-8.55,44.32-26.16,61c-17,16.37-38.24,24.67-63.23,24.67h-41.82l-14.85,25h57.55l2.28,0a117.17,117.17,0,0,0,82.44-34.29c20.92-20.93,32.12-48,31.54-76C1171.28,85.59,1160,58.31,1139,37.27Z"/><path d="M229.85,3.09,138.13,158.53,46.4,3.09H12.59v143.2a56.68,56.68,0,0,1,26.82.14V42.91l98.72,167.62L236.84,42.91V224.39h26.83V3.09Z"/><circle class="cls-1" cx="25.69" cy="201.83" r="25.69"/><path d="M536.85,115.46c0-.57,0-1.14,0-1.72a109.7,109.7,0,0,0-15.8-57.2C500.81,21.94,464.5,1,423.53.05c-.52,0-1,0-1.58,0l-1.29,0h-.34L419,0l-1.58,0c-41,.93-77.28,21.89-97.54,56.49a109.61,109.61,0,0,0-15.8,57.2c0,.58,0,1.15,0,1.72-.17,22.84,7.62,45.67,21.87,64.83,18.79,26,47.47,42.55,79.93,46.35,0,.05-.07.11-.11.17a105.27,105.27,0,0,0,12.17.7q1.25,0,2.49,0t2.49,0a105.57,105.57,0,0,0,12.18-.7c-.05-.06-.08-.12-.12-.17,32.46-3.8,61.14-20.39,79.94-46.35C529.22,161.13,537,138.3,536.85,115.46Zm-110.67,86c-.65,0-1.3.07-2,.09-1.23.05-2.47.08-3.73.08s-2.49,0-3.73-.08l-1.95-.09c-22.3-1.23-40.92-9.55-56.77-25.39-12.78-12.79-20.87-27.68-24.17-44.42,0-.24-.09-.47-.13-.71-.18-.93-.33-1.86-.47-2.8a96,96,0,0,1-1.07-14.35v0c0-.7,0-1.4,0-2.1a92.68,92.68,0,0,1,1.49-15,86.38,86.38,0,0,1,10.14-26.77,93.54,93.54,0,0,1,14.19-18,90.84,90.84,0,0,1,20.71-15.63,87.89,87.89,0,0,1,18.77-7.4l.85-.23,1.15-.26a90.64,90.64,0,0,1,20.8-2.35h.34a90.73,90.73,0,0,1,20.81,2.35l1.15.26.85.23a88.1,88.1,0,0,1,18.77,7.4,91,91,0,0,1,20.7,15.63,93.16,93.16,0,0,1,14.19,18,86.13,86.13,0,0,1,10.14,26.77,92.67,92.67,0,0,1,1.5,15c0,.7,0,1.4,0,2.1v0a94.73,94.73,0,0,1-1.07,14.35c-.14.94-.29,1.87-.46,2.8-.05.24-.09.47-.14.71-3.3,16.74-11.38,31.63-24.17,44.42C467.1,191.86,448.47,200.18,426.18,201.41Z"/><path d="M7.58,284.13h32.2c17.69,0,30.16,12.82,30.16,29.26s-12.47,29.25-30.39,29.25H19.94v24.27H7.58Zm12.36,11.34v35.72H38.76c11.56,0,18.82-7.71,18.82-17.8s-7.26-17.92-18.82-17.92Z"/><path d="M82.53,284.13h32.2c18,0,29.71,11.68,29.71,27.67a26.31,26.31,0,0,1-16,24.49L146,366.91H132l-15-27.33H94.78v27.33H82.53Zm12.25,11.46v32.65h18.93c12.59,0,18.37-8.05,18.37-16.78,0-9.41-6.24-15.87-18.37-15.87Z"/><path d="M153.63,325.52A42.47,42.47,0,1,1,196,368,42.44,42.44,0,0,1,153.63,325.52Zm72.57,0c0-16.78-13.16-30.61-30.16-30.61s-30,13.83-30,30.61S179.14,356,196,356A30.15,30.15,0,0,0,226.2,325.52Z"/><path d="M250.69,284.13H282.9c17.68,0,30.16,12.82,30.16,29.26s-12.48,29.25-30.39,29.25H263.05v24.27H250.69Zm12.36,11.34v35.72h18.83c11.56,0,18.82-7.71,18.82-17.8s-7.26-17.92-18.82-17.92Z"/><path d="M325.65,284.13h54.2v11.8H337.78v23.58h42.07V331.3H337.78V355h42.07v11.91h-54.2Z"/><path d="M393.23,284.13h32.2c18,0,29.71,11.68,29.71,27.67a26.31,26.31,0,0,1-16,24.49l17.58,30.62H442.67l-15-27.33H405.48v27.33H393.23Zm12.25,11.46v32.65h18.93c12.59,0,18.37-8.05,18.37-16.78,0-9.41-6.24-15.87-18.37-15.87Z"/><path d="M484.28,295.47H460.81V284.13H520v11.34H496.53v71.44H484.28Z"/><path d="M532.36,292l12.48-7.87v82.78H532.36Z"/><path d="M560.49,284.13h54.2v11.8H572.62v23.58h42.07V331.3H572.62V355h42.07v11.91h-54.2Z"/><path d="M622,350.58l10.77-8.5c6,9.75,14.4,14.28,24.83,14.28,11.11,0,16.89-5.44,16.89-12.92,0-9.87-10.54-11.8-21.65-14.18-12.82-2.61-26.42-6-26.42-22.56,0-12.93,11.79-23.7,28.46-23.7,14.17,0,23.47,5.1,31.52,14.17l-10.21,8.05c-4.87-6.57-10.54-11-21.31-11-11.11,0-15.76,5.21-15.76,12.35,0,8.4,9.75,10,20.52,12.25,13,2.72,27.55,6.46,27.55,24.49,0,12.7-10.43,24.72-29.25,24.72C640.65,368,629.77,361.24,622,350.58Z"/></g></g></svg>