<svg xmlns="http://www.w3.org/2000/svg" viewBox="0 0 836.57 146.69"><defs><style>.cls-1{fill:#fff;}</style></defs><g id="Layer_2" data-name="Layer 2"><g id="Layer_1-2" data-name="Layer 1"><polygon class="cls-1" points="679.79 144.68 659.4 144.68 657.29 139.92 605.41 23.19 553.72 139.92 551.61 144.68 531.01 144.68 533.15 139.92 593.13 6.2 593.41 5.58 595.02 2 615.79 2 617.39 5.58 617.68 6.2 677.66 139.92 679.79 144.68"/><path class="cls-1" d="M443.73,144.68h0Z"/><path class="cls-1" d="M836.56,73.57a67.41,67.41,0,0,0-17.9-46.85c-.82-.91-1.67-1.81-2.55-2.69A75.46,75.46,0,0,0,787.68,6.2c-.61-.22-1.22-.43-1.84-.62A74.07,74.07,0,0,0,761.61,2H711.18V144.68H764.3a74.53,74.53,0,0,0,24.93-4.76,75.6,75.6,0,0,0,27-17.33c.84-.84,1.65-1.7,2.44-2.57C830.58,106.92,836.91,90.54,836.56,73.57Zm-34.76,39.1c-10.93,10.56-24.65,15.91-40.77,15.91H728.47V18.09H761c16.12,0,29.84,5.35,40.78,15.92,11.34,10.75,16.85,23.61,16.85,39.33S813.15,101.91,801.8,112.67Z"/><path class="cls-1" d="M764.3,144.68h0Z"/><path class="cls-1" d="M.53,144.68H0v-.31Z"/><path class="cls-1" d="M17.3,144.12v.56h-.94C16.68,144.51,17,144.32,17.3,144.12Z"/><path class="cls-1" d="M161.89,2V144.68H144.6v-117L80.94,135.74,17.3,27.67V144.12c-.31.2-.62.39-.94.56H.53L0,144.37V2H21.8l2.12,3.58.37.62,56.65,96,56.66-96,.37-.62L140.08,2Z"/><path class="cls-1" d="M341.58,36.45A72.88,72.88,0,0,0,307.35,6.2c-.49-.21-1-.43-1.49-.62A76.92,76.92,0,0,0,278.69,0l-1,0h-1.88l-1,0a76.83,76.83,0,0,0-27.17,5.55c-.5.19-1,.41-1.5.62a72.85,72.85,0,0,0-34.22,30.25,70.74,70.74,0,0,0-10.19,36.89c0,.37,0,.74,0,1.1a69.61,69.61,0,0,0,14.1,41.8,72.7,72.7,0,0,0,29,23.68A75.61,75.61,0,0,0,259,144.68a77,77,0,0,0,8.37,1.45l-.07.11a68.47,68.47,0,0,0,7.85.45c.53,0,1.07,0,1.6,0s1.07,0,1.61,0a68.43,68.43,0,0,0,7.84-.45l-.07-.11a77,77,0,0,0,8.37-1.45,76,76,0,0,0,14.15-4.76,72.74,72.74,0,0,0,29-23.68,69.61,69.61,0,0,0,14.1-41.8c0-.36,0-.73,0-1.1A70.83,70.83,0,0,0,341.58,36.45Zm-7.93,36.89a60.92,60.92,0,0,1-.69,9.25c-.09.6-.19,1.21-.3,1.8l-.09.46A54.9,54.9,0,0,1,317,113.49a53.9,53.9,0,0,1-36.59,16.37c-.42,0-.84,0-1.27.06-.79,0-1.59.05-2.4.05s-1.61,0-2.4-.05c-.43,0-.85,0-1.27-.06a53.9,53.9,0,0,1-36.59-16.37,54.88,54.88,0,0,1-15.58-28.64,4.14,4.14,0,0,1-.09-.46c-.12-.59-.22-1.2-.31-1.8a62.24,62.24,0,0,1-.69-9.25v0c0-.45,0-.9,0-1.36a58.71,58.71,0,0,1,1-9.69A55.56,55.56,0,0,1,227.31,45a59.67,59.67,0,0,1,9.15-11.62A58.14,58.14,0,0,1,249.8,23.3a56.91,56.91,0,0,1,12.11-4.77l.55-.15.74-.17a58.76,58.76,0,0,1,13.41-1.51h.22a58.91,58.91,0,0,1,13.42,1.51l.74.17.54.15a56.7,56.7,0,0,1,12.11,4.77A58.14,58.14,0,0,1,317,33.38,60.11,60.11,0,0,1,326.14,45a55.54,55.54,0,0,1,6.53,17.25,58.71,58.71,0,0,1,1,9.69c0,.46,0,.91,0,1.36Z"/><path class="cls-1" d="M516,73.57c.38-18.38-6.89-36-20.45-49.54A75.46,75.46,0,0,0,467.1,6.2c-.62-.22-1.23-.43-1.85-.62A74,74,0,0,0,441,2H390.23V144.68h53.5a74.53,74.53,0,0,0,24.93-4.76,75.56,75.56,0,0,0,27-17.33C509.14,109.09,516.36,91.66,516,73.57Zm-34.75,39.1c-10.94,10.56-24.66,15.91-40.78,15.91H407.53V18.09h32.92c16.12,0,29.84,5.35,40.79,15.92,11.34,10.75,16.85,23.61,16.85,39.33S492.58,101.91,481.23,112.67Z"/></g></g></svg>