<svg xmlns="http://www.w3.org/2000/svg" viewBox="0 0 1170.72 227.51"><defs><style>.cls-1{fill:#fff;}.cls-2{fill:#cba052;}</style></defs><g id="Layer_2" data-name="Layer 2"><g id="Layer_1-2" data-name="Layer 1"><polygon class="cls-1" points="838.63 3.09 739.36 224.39 771.3 224.39 854.74 35.96 938.49 224.39 970.12 224.39 870.85 2.11 838.63 3.09"/><path class="cls-1" d="M695,37.27A116.89,116.89,0,0,0,610.45,3.09H552.9l14.85,25h41.8c25,0,46.27,8.3,63.25,24.69,17.59,16.67,26.14,36.63,26.14,61s-8.55,44.32-26.16,61c-17,16.37-38.24,24.67-63.23,24.67H567.73l-14.85,25h57.54l2.29,0a117.17,117.17,0,0,0,82.44-34.29c20.92-20.93,32.12-48,31.54-76C727.27,85.59,716,58.31,695,37.27Z"/><path class="cls-1" d="M1139,37.27a116.89,116.89,0,0,0-84.53-34.18H996.91l14.85,25h41.8c25,0,46.27,8.3,63.25,24.69,17.59,16.67,26.14,36.63,26.14,61s-8.55,44.32-26.16,61c-17,16.37-38.24,24.67-63.23,24.67h-41.82l-14.85,25h57.55l2.28,0a117.17,117.17,0,0,0,82.44-34.29c20.92-20.93,32.12-48,31.54-76C1171.28,85.59,1160,58.31,1139,37.27Z"/><path class="cls-1" d="M229.85,3.09,138.13,158.53,46.4,3.09H12.59v143.2a56.68,56.68,0,0,1,26.82.14V42.91l98.72,167.62L236.84,42.91V224.39h26.83V3.09Z"/><circle class="cls-2" cx="25.69" cy="201.83" r="25.69"/><path class="cls-1" d="M536.85,115.46c0-.57,0-1.14,0-1.72a109.7,109.7,0,0,0-15.8-57.2C500.81,21.94,464.5,1,423.53.05c-.52,0-1,0-1.58,0l-1.29,0h-.34L419,0l-1.58,0c-41,.93-77.28,21.89-97.54,56.49a109.61,109.61,0,0,0-15.8,57.2c0,.58,0,1.15,0,1.72-.17,22.84,7.62,45.67,21.87,64.83,18.79,26,47.47,42.55,79.93,46.35,0,.05-.07.11-.11.17a105.27,105.27,0,0,0,12.17.7q1.25,0,2.49,0t2.49,0a105.57,105.57,0,0,0,12.18-.7c-.05-.06-.08-.12-.12-.17,32.46-3.8,61.14-20.39,79.94-46.35C529.22,161.13,537,138.3,536.85,115.46Zm-110.67,86c-.65,0-1.3.07-2,.09-1.23.05-2.47.08-3.73.08s-2.49,0-3.73-.08l-1.95-.09c-22.3-1.23-40.92-9.55-56.77-25.39-12.78-12.79-20.87-27.68-24.17-44.42,0-.24-.09-.47-.13-.71-.18-.93-.33-1.86-.47-2.8a96,96,0,0,1-1.07-14.35v0c0-.7,0-1.4,0-2.1a92.68,92.68,0,0,1,1.49-15,86.38,86.38,0,0,1,10.14-26.77,93.54,93.54,0,0,1,14.19-18,90.84,90.84,0,0,1,20.71-15.63,87.89,87.89,0,0,1,18.77-7.4l.85-.23,1.15-.26a90.64,90.64,0,0,1,20.8-2.35h.34a90.73,90.73,0,0,1,20.81,2.35l1.15.26.85.23a88.1,88.1,0,0,1,18.77,7.4,91,91,0,0,1,20.7,15.63,93.16,93.16,0,0,1,14.19,18,86.13,86.13,0,0,1,10.14,26.77,92.67,92.67,0,0,1,1.5,15c0,.7,0,1.4,0,2.1v0a94.73,94.73,0,0,1-1.07,14.35c-.14.94-.29,1.87-.46,2.8-.05.24-.09.47-.14.71-3.3,16.74-11.38,31.63-24.17,44.42C467.1,191.86,448.47,200.18,426.18,201.41Z"/></g></g></svg>